<?xml version="1.0" standalone="no"?>
<!DOCTYPE svg PUBLIC "-//W3C//DTD SVG 20010904//EN"
 "http://www.w3.org/TR/2001/REC-SVG-20010904/DTD/svg10.dtd">
<svg version="1.0" xmlns="http://www.w3.org/2000/svg"
 width="400.000000pt" height="382.000000pt" viewBox="0 0 400.000000 382.000000"
 preserveAspectRatio="xMidYMid meet">

<g transform="translate(0.000000,382.000000) scale(0.100000,-0.100000)"
fill="#000000" stroke="none">
<path d="M1607 3640 c-142 -36 -339 -233 -446 -446 -106 -212 -128 -445 -56
-603 14 -29 25 -57 25 -62 0 -5 -36 -48 -80 -95 -88 -94 -134 -176 -150 -264
-11 -61 -1 -140 24 -187 13 -27 12 -29 -39 -85 -29 -31 -65 -81 -80 -111 l-26
-55 -37 9 c-20 4 -84 13 -142 19 -58 6 -131 20 -163 31 -77 26 -106 16 -98
-33 3 -18 -16 -5 -55 38 -31 34 -48 45 -66 42 -29 -4 -36 -40 -14 -72 8 -13
12 -32 10 -43 -11 -42 49 -124 133 -182 38 -26 230 -95 293 -106 37 -6 41 -10
36 -29 -13 -42 -34 -173 -41 -249 -6 -65 -5 -81 9 -96 15 -16 15 -26 1 -117
-20 -132 -20 -388 1 -474 19 -82 56 -145 97 -167 44 -22 124 -43 170 -43 22 0
49 -8 65 -20 27 -20 34 -20 487 -9 311 8 565 9 785 2 179 -5 327 -7 330 -5 3
2 4 72 2 155 -2 84 1 202 7 264 l10 112 77 123 c86 137 120 190 252 393 73
111 92 148 92 176 0 46 33 83 103 113 29 13 72 40 96 60 24 20 49 35 55 33 35
-11 -10 -116 -54 -127 -22 -5 -19 -8 22 -18 101 -26 209 -9 319 48 34 17 64
28 67 25 10 -10 -67 -74 -102 -85 -26 -8 -20 -9 30 -6 35 2 78 13 102 25 45
23 56 26 48 12 -9 -14 -117 -84 -151 -98 -27 -12 -25 -13 30 -8 33 3 74 8 90
11 20 4 27 3 20 -4 -17 -17 -77 -32 -230 -57 -153 -26 -225 -51 -282 -99 -75
-63 -149 -215 -257 -526 -64 -182 -148 -367 -201 -441 -37 -52 -43 -69 -22
-69 19 1 76 84 133 195 59 113 96 202 161 390 59 170 141 341 187 393 55 61
123 88 288 117 162 27 208 42 267 80 73 49 66 97 -10 70 l-44 -16 54 55 c82
83 49 95 -72 26 -31 -17 -57 -29 -57 -26 0 3 12 22 26 43 25 37 25 38 5 41
-12 2 -45 -10 -74 -26 -28 -17 -76 -37 -106 -46 -55 -16 -206 -23 -199 -8 39
74 50 107 41 121 -18 28 -53 25 -87 -7 -17 -17 -64 -46 -104 -66 -78 -39 -112
-78 -112 -130 0 -20 -27 -71 -82 -157 -46 -70 -86 -128 -90 -128 -5 -1 -8 18
-8 42 0 137 -41 320 -107 477 -26 63 -37 107 -43 171 -8 93 -27 143 -100 258
-68 108 -57 152 73 290 104 112 116 173 72 341 -58 217 -195 576 -255 669 -55
84 -123 146 -205 187 -90 44 -167 58 -275 50 -47 -4 -92 -7 -100 -6 -111 7
-243 7 -273 0z m586 -380 c113 -43 169 -121 187 -267 17 -134 14 -449 -4 -518
-32 -116 -127 -218 -229 -246 -23 -6 -74 -9 -113 -7 -56 4 -84 12 -139 41
l-68 36 28 -29 c40 -42 119 -72 202 -78 70 -4 71 -5 77 -35 3 -16 6 -40 6 -53
0 -13 10 -53 21 -89 l22 -65 -43 -55 c-49 -63 -184 -193 -216 -207 -17 -8 -32
-2 -85 36 l-65 46 -17 173 c-28 268 -46 327 -122 408 -48 52 -114 149 -135
198 -11 27 -17 31 -51 31 -34 0 -39 3 -39 24 0 49 13 116 23 116 6 0 25 -12
44 -26 19 -14 37 -23 41 -20 12 13 -15 41 -54 56 -38 15 -39 16 -34 55 4 35 9
40 32 43 20 2 40 -7 72 -34 24 -20 48 -36 52 -36 5 1 12 27 15 59 8 81 33 128
108 203 56 56 81 72 160 105 98 41 192 97 225 133 24 27 32 27 99 2z m-1921
-1476 c18 -20 51 -49 73 -63 41 -28 142 -61 185 -61 38 0 10 16 -50 29 -69 14
-120 44 -120 70 0 30 11 32 76 12 32 -11 118 -26 190 -35 138 -17 192 -31 260
-71 63 -37 90 -75 98 -137 4 -29 23 -132 41 -228 51 -255 66 -379 66 -526 1
-262 -62 -457 -156 -483 -36 -10 -147 15 -187 41 -69 45 -112 239 -91 400 7
46 28 137 49 203 77 250 85 282 91 365 7 106 3 111 -133 146 -149 39 -227 82
-260 147 -13 24 -13 27 2 27 9 0 41 -14 71 -31 47 -27 137 -59 167 -59 24 0
-16 22 -60 34 -27 7 -72 27 -99 45 -44 29 -47 32 -20 27 29 -5 29 -5 5 6 -223
101 -260 124 -260 160 0 29 27 21 62 -18z m68 -101 c49 -24 61 -33 48 -38 -25
-10 -22 -36 7 -79 28 -41 26 -42 -17 -20 -71 37 -157 137 -144 170 6 15 4 16
106 -33z m377 -637 c2 -2 -10 -40 -26 -87 -27 -78 -30 -81 -30 -44 -1 22 2 64
6 93 5 48 8 52 27 46 12 -4 22 -7 23 -8z m1971 -121 c-44 -75 -82 -134 -83
-133 -3 4 24 230 27 233 6 6 104 34 120 34 13 1 -4 -34 -64 -134z"/>
<path d="M2200 2975 c-35 -43 37 -105 140 -120 l45 -6 -63 44 c-35 24 -69 55
-75 67 -15 30 -31 35 -47 15z"/>
<path d="M1955 2944 c-28 -20 -72 -47 -100 -61 -27 -15 -44 -28 -38 -30 16 -6
117 24 163 47 51 26 66 46 50 65 -17 20 -18 20 -75 -21z"/>
<path d="M1975 2825 c-42 -12 -105 -42 -105 -50 0 -2 13 -2 28 1 19 4 32 1 41
-10 19 -23 40 -20 51 9 5 14 16 25 25 25 15 0 21 25 8 33 -5 3 -26 -1 -48 -8z"/>
<path d="M2238 2810 c12 -5 22 -16 22 -23 0 -8 6 -20 13 -26 11 -8 20 -5 42
13 38 32 25 46 -43 45 -44 0 -52 -2 -34 -9z"/>
<path d="M2180 2744 c0 -3 9 -17 20 -31 26 -33 25 -59 -1 -73 -16 -9 -27 -7
-56 10 -24 14 -39 18 -46 11 -15 -15 7 -38 49 -51 67 -22 127 39 94 97 -13 23
-60 52 -60 37z"/>
<path d="M2160 2460 c-41 -5 -88 -14 -105 -21 -28 -12 -24 -13 70 -20 118 -8
137 -5 133 24 -4 25 -6 26 -98 17z"/>
<path d="M800 1600 c31 -4 66 -12 79 -19 12 -7 25 -10 28 -7 12 12 -68 36
-114 35 l-48 -2 55 -7z"/>
</g>
</svg>
