<?xml version="1.0" standalone="no"?>
<!DOCTYPE svg PUBLIC "-//W3C//DTD SVG 20010904//EN"
 "http://www.w3.org/TR/2001/REC-SVG-20010904/DTD/svg10.dtd">
<svg version="1.0" xmlns="http://www.w3.org/2000/svg"
 width="338.000000pt" height="400.000000pt" viewBox="0 0 338.000000 400.000000"
 preserveAspectRatio="xMidYMid meet">

<g transform="translate(0.000000,400.000000) scale(0.100000,-0.100000)"
fill="#000000" stroke="none">
<path d="M1307 3829 c-105 -12 -181 -53 -288 -156 -119 -115 -178 -194 -244
-328 -117 -238 -134 -459 -51 -641 l26 -55 -84 -89 c-105 -110 -158 -210 -164
-306 -6 -95 5 -147 43 -205 l35 -50 -49 -69 c-58 -83 -195 -399 -246 -565 -83
-274 -100 -435 -90 -865 6 -304 11 -340 37 -324 4 3 8 93 8 200 0 111 4 193 9
190 12 -8 34 21 26 34 -3 5 -13 10 -21 10 -11 0 -14 25 -14 143 0 79 3 179 7
221 5 68 9 79 28 86 33 12 38 37 14 61 l-21 21 27 107 c15 58 50 166 77 238
48 128 51 133 75 127 16 -4 28 -2 33 6 11 18 1 40 -17 40 -11 0 -14 7 -9 28
10 40 102 223 129 255 l24 29 39 -21 c21 -12 54 -24 74 -27 22 -4 45 -18 62
-39 16 -18 53 -43 84 -56 46 -19 54 -26 50 -44 -3 -11 -6 -26 -6 -33 0 -9 -7
-11 -19 -7 -28 8 -54 -21 -41 -46 6 -10 20 -19 30 -19 16 0 20 -7 20 -36 0
-21 17 -75 41 -128 57 -125 60 -162 20 -222 -24 -37 -31 -58 -31 -96 0 -42 92
-431 118 -498 8 -20 6 -29 -11 -48 -25 -27 -15 -53 23 -62 18 -4 29 -25 60
-110 20 -58 42 -117 48 -131 9 -24 8 -28 -10 -32 -27 -8 -17 -32 13 -31 13 1
31 -8 40 -20 10 -12 21 -18 25 -14 4 4 -34 130 -84 280 -91 271 -182 604 -182
665 0 18 13 53 31 82 42 68 38 123 -19 247 -45 98 -52 146 -31 230 l12 45 39
-6 c22 -4 61 -23 88 -43 l48 -36 6 -105 c13 -218 27 -391 47 -556 31 -274 110
-808 122 -835 23 -48 44 -51 291 -47 277 4 261 -5 270 149 29 468 37 629 42
873 6 255 -4 595 -23 754 l-6 54 65 -52 c46 -35 71 -64 82 -91 21 -54 21 -59
-11 -93 l-28 -29 30 -24 c17 -13 38 -27 48 -30 26 -8 22 -95 -8 -185 -29 -84
-27 -100 17 -194 55 -118 54 -120 -77 -730 -30 -143 -58 -272 -61 -288 -4 -20
-2 -27 10 -27 23 0 29 19 71 217 35 163 40 180 55 170 28 -17 52 -1 48 30 -2
23 -7 28 -30 26 -17 -1 -25 3 -23 10 2 7 20 89 40 182 32 147 36 184 33 270
-4 89 -8 107 -36 162 -37 73 -39 99 -12 171 11 29 20 76 20 107 l0 55 35 0
c62 0 132 53 170 129 l17 34 59 -204 c33 -112 75 -261 93 -331 32 -119 33
-128 17 -142 -20 -18 -36 -50 -116 -225 -39 -86 -58 -139 -59 -169 -2 -62 18
-64 38 -5 9 26 45 119 80 206 l64 159 25 -56 c34 -73 103 -139 188 -179 51
-24 67 -36 62 -47 -3 -8 -19 -64 -35 -125 -29 -112 -74 -225 -89 -225 -4 0
-10 4 -14 10 -9 15 -35 0 -35 -21 0 -10 7 -22 15 -27 14 -7 13 -13 -7 -43 -28
-41 -80 -69 -129 -69 -58 0 -133 27 -164 60 l-30 31 -5 472 c-3 260 -8 452
-12 427 -15 -87 -27 -267 -34 -487 -6 -205 -8 -223 -25 -228 -29 -10 -25 -53
6 -65 24 -9 25 -12 25 -105 0 -76 -3 -97 -15 -101 -17 -7 -21 -53 -5 -55 20
-3 25 -4 38 -12 19 -12 32 1 32 33 l0 29 48 -25 c98 -51 224 -41 288 23 18 18
56 79 84 135 40 82 56 128 75 225 13 67 31 136 40 152 22 44 19 68 -15 93 -28
21 -30 25 -24 72 16 141 56 280 94 328 10 14 36 30 58 36 48 14 89 51 98 87 4
15 18 38 31 51 19 19 24 32 20 52 -13 64 -19 88 -25 102 -3 8 -6 31 -7 50 -2
25 -10 40 -34 59 l-32 24 65 39 c77 46 116 89 116 128 0 34 -10 42 -54 42 -43
0 -105 -28 -232 -102 -86 -52 -107 -60 -150 -60 -58 0 -128 -32 -157 -71 -21
-29 -23 -62 -18 -259 3 -100 -14 -268 -26 -256 -2 2 -33 106 -69 232 -36 126
-78 272 -94 325 -17 55 -30 119 -30 150 -1 67 -30 141 -93 231 -81 119 -75
163 39 290 148 164 158 212 90 443 -54 182 -158 461 -218 583 -82 167 -201
269 -359 307 -71 16 -193 19 -252 6 -22 -5 -51 -6 -65 -1 -45 14 -123 18 -195
9z m560 -410 c84 -32 146 -98 172 -184 12 -37 21 -85 21 -107 l0 -40 -30 25
c-34 29 -90 50 -122 45 -35 -5 -27 -31 12 -41 19 -5 58 -18 86 -29 64 -24 64
-24 64 -252 0 -181 -10 -248 -50 -327 -48 -93 -135 -157 -242 -179 -76 -15
-151 0 -238 47 -63 34 -64 34 -40 8 41 -45 117 -77 193 -83 64 -5 67 -6 67
-31 0 -42 18 -92 41 -117 28 -30 21 -58 -33 -119 -61 -69 -142 -105 -233 -104
-38 1 -81 4 -95 8 -28 8 -26 3 -54 227 -19 160 -50 240 -121 314 -55 57 -111
140 -134 198 -8 18 -19 32 -25 31 -6 -1 -26 -1 -44 0 -28 1 -32 4 -28 24 3 12
8 43 11 70 7 54 20 59 63 22 36 -30 42 -31 42 -6 0 19 -53 51 -84 51 -13 0
-15 7 -10 43 12 71 39 75 113 16 29 -23 55 -39 58 -35 4 3 8 29 9 56 4 71 44
151 108 216 45 44 82 68 198 123 89 42 160 84 188 109 25 23 53 41 62 42 10 0
43 -10 75 -21z m-51 -1135 c-3 -9 -6 -28 -6 -42 -1 -31 -13 -15 -24 31 -5 23
-3 27 15 27 15 0 19 -4 15 -16z m1349 -314 c19 -31 -135 -138 -257 -180 l-47
-17 -21 30 c-12 16 -20 30 -18 31 11 9 258 130 278 136 36 12 58 12 65 0z
m-365 -170 c39 -39 54 -115 24 -127 -9 -3 -26 5 -42 19 -24 22 -31 23 -59 13
-38 -13 -47 -20 -39 -34 4 -6 18 -6 38 0 17 5 33 7 35 5 2 -2 -7 -21 -22 -41
-28 -43 -31 -60 -11 -72 7 -4 16 -24 18 -43 4 -26 0 -38 -16 -52 -29 -24 -5
-23 27 2 30 24 67 26 67 5 0 -21 47 -30 94 -18 31 9 42 8 54 -3 8 -8 17 -12
21 -8 3 4 0 9 -6 11 -20 7 -15 23 7 23 11 0 20 5 20 10 0 14 -24 12 -80 -6
-54 -18 -95 -16 -95 5 0 19 109 78 158 87 25 4 35 10 29 16 -14 14 -83 -7
-165 -50 -52 -27 -73 -33 -85 -26 -27 17 -25 33 5 45 15 6 43 22 62 36 19 15
59 37 90 49 51 21 78 44 52 44 -24 0 -99 -36 -151 -72 -83 -57 -129 -48 -79
16 15 20 25 24 32 17 34 -34 97 7 97 63 0 29 4 36 31 45 50 17 103 14 126 -9
19 -17 20 -23 10 -49 -9 -25 -8 -33 6 -48 9 -11 14 -28 11 -39 -3 -12 1 -26
10 -33 20 -17 21 -60 1 -68 -9 -3 -25 -22 -35 -43 -12 -23 -32 -43 -51 -52
-75 -31 -114 -54 -131 -78 -19 -27 -64 -239 -74 -351 -5 -49 -11 -69 -21 -69
-38 0 -149 94 -198 168 l-26 39 19 49 c42 107 54 190 53 380 -1 100 2 190 5
199 9 22 99 65 137 65 15 0 36 -9 47 -20z"/>
<path d="M1555 3131 c-35 -16 -109 -81 -92 -81 3 0 27 11 53 25 28 15 64 25
88 25 49 0 71 12 63 34 -9 22 -62 20 -112 -3z"/>
<path d="M1567 3023 c-11 -10 -8 -101 3 -108 26 -16 59 59 44 99 -6 16 -35 22
-47 9z"/>
<path d="M1950 3015 c-17 -20 -16 -64 2 -82 13 -13 17 -13 32 2 21 21 21 81 0
89 -21 8 -20 8 -34 -9z"/>
<path d="M1864 2849 c31 -37 33 -64 5 -79 -16 -9 -28 -7 -60 9 -39 21 -59 20
-59 0 0 -16 63 -49 93 -49 35 0 77 41 77 75 0 29 -40 75 -65 75 -13 0 -12 -6
9 -31z"/>
<path d="M1877 2614 c-34 -29 -76 -31 -110 -4 -32 25 -57 26 -57 1 0 -25 43
-59 85 -67 39 -7 87 15 111 52 24 36 5 48 -29 18z"/>
<path d="M2680 1363 c0 -24 83 -72 95 -54 2 5 -7 12 -23 16 -15 3 -37 16 -49
27 -13 12 -23 17 -23 11z"/>
<path d="M600 1835 c-18 -22 -1 -50 31 -50 20 0 24 5 24 30 0 23 -5 31 -21 33
-11 2 -27 -4 -34 -13z"/>
<path d="M2323 1655 c-14 -11 -16 -18 -7 -32 17 -28 48 -23 52 8 4 32 -18 43
-45 24z"/>
<path d="M618 1578 c-8 -21 2 -38 22 -38 19 0 30 17 23 38 -3 6 -13 12 -23 12
-10 0 -20 -6 -22 -12z"/>
<path d="M783 1504 c-3 -8 2 -23 11 -32 15 -15 17 -15 33 0 13 14 14 20 3 32
-16 20 -39 20 -47 0z"/>
<path d="M2136 1475 c-20 -20 -10 -45 19 -45 29 0 39 25 19 45 -9 8 -17 15
-19 15 -2 0 -10 -7 -19 -15z"/>
<path d="M455 1450 c-4 -7 -3 -16 3 -22 14 -14 45 -2 40 15 -6 16 -34 21 -43
7z"/>
<path d="M884 1366 c-10 -26 4 -48 28 -44 17 2 23 10 23 28 0 18 -6 26 -23 28
-13 2 -25 -3 -28 -12z"/>
<path d="M2402 1348 c2 -15 10 -23 23 -23 13 0 21 8 23 23 3 18 -1 22 -23 22
-22 0 -26 -4 -23 -22z"/>
<path d="M453 1243 c-15 -5 -17 -39 -4 -47 14 -9 41 4 41 19 0 17 -22 33 -37
28z"/>
<path d="M708 1205 c-4 -11 -10 -38 -14 -59 l-7 -39 -29 34 -30 34 6 -40 c3
-21 15 -52 26 -68 15 -19 20 -37 16 -55 -12 -56 -37 -404 -43 -590 -6 -173 -5
-192 10 -192 30 0 38 39 44 220 3 98 10 177 14 174 5 -2 18 5 29 16 16 16 18
24 10 40 -6 11 -17 20 -25 20 -19 0 -20 71 -4 274 11 147 10 267 -3 231z"/>
<path d="M817 1174 c-4 -4 -7 -16 -7 -26 0 -13 7 -18 26 -18 21 0 25 4 22 22
-3 23 -27 35 -41 22z"/>
<path d="M2374 1166 c-10 -26 4 -48 28 -44 17 2 23 10 23 28 0 18 -6 26 -23
28 -13 2 -25 -3 -28 -12z"/>
<path d="M2177 1023 c-15 -14 -7 -43 12 -43 26 0 36 17 21 35 -14 16 -23 19
-33 8z"/>
<path d="M377 964 c-4 -4 -7 -18 -7 -31 0 -20 5 -24 23 -21 16 2 22 10 22 28
0 24 -23 39 -38 24z"/>
<path d="M2441 831 c-13 -24 8 -55 34 -50 28 6 42 34 26 53 -18 22 -48 20 -60
-3z"/>
<path d="M834 786 c-9 -24 4 -48 23 -44 12 2 18 12 18 28 0 29 -32 41 -41 16z"/>
<path d="M2626 751 c-9 -14 4 -41 19 -41 17 0 38 27 30 40 -8 12 -42 13 -49 1z"/>
<path d="M521 706 c-17 -20 -4 -56 18 -56 28 0 47 28 34 48 -14 23 -37 26 -52
8z"/>
<path d="M2414 526 c-9 -24 4 -48 23 -44 24 4 24 52 0 56 -9 2 -20 -4 -23 -12z"/>
<path d="M401 422 c-8 -15 -7 -23 4 -32 21 -18 47 -4 43 22 -4 29 -34 35 -47
10z"/>
<path d="M744 425 c-7 -17 12 -45 31 -45 19 0 36 25 29 44 -8 20 -53 21 -60 1z"/>
<path d="M963 414 c-3 -8 -1 -20 5 -26 16 -16 42 -2 42 22 0 24 -38 28 -47 4z"/>
<path d="M2060 389 c-10 -17 -9 -24 4 -37 21 -22 51 -4 51 29 0 33 -39 39 -55
8z"/>
<path d="M541 332 c-15 -28 8 -57 38 -47 17 5 21 13 19 33 -4 34 -42 43 -57
14z"/>
</g>
</svg>
