<?xml version="1.0" standalone="no"?>
<!DOCTYPE svg PUBLIC "-//W3C//DTD SVG 20010904//EN"
 "http://www.w3.org/TR/2001/REC-SVG-20010904/DTD/svg10.dtd">
<svg version="1.0" xmlns="http://www.w3.org/2000/svg"
 width="364.000000pt" height="400.000000pt" viewBox="0 0 364.000000 400.000000"
 preserveAspectRatio="xMidYMid meet">

<g transform="translate(0.000000,400.000000) scale(0.100000,-0.100000)"
fill="#000000" stroke="none">
<path d="M1403 3830 c-114 -16 -216 -79 -333 -207 -257 -283 -348 -644 -230
-911 l20 -44 -80 -85 c-58 -61 -91 -106 -122 -170 -39 -78 -43 -92 -43 -162 0
-77 12 -123 48 -174 l19 -28 -23 -16 c-13 -9 -48 -41 -77 -71 -66 -69 -123
-185 -187 -382 -53 -165 -155 -557 -155 -595 0 -15 -4 -34 -10 -44 -12 -24 11
-57 44 -63 23 -5 45 16 31 30 -3 3 -5 0 -5 -6 0 -17 -25 -15 -41 4 -17 20 4
36 41 30 100 -16 402 -96 418 -111 2 -2 -22 -11 -53 -20 -32 -9 -55 -18 -53
-20 4 -4 576 139 680 170 77 23 78 22 78 -38 0 -62 23 -149 45 -167 8 -7 15
-16 15 -20 0 -12 -672 -357 -741 -380 -77 -26 -172 -29 -215 -7 -97 50 -163
197 -165 366 0 36 -4 86 -9 111 -6 31 -8 -1 -6 -105 4 -170 15 -218 70 -301
64 -96 157 -133 272 -106 l42 9 -5 -38 c-5 -32 -2 -39 11 -39 12 0 16 10 16
43 0 43 0 43 58 67 31 13 207 102 389 197 183 95 339 173 347 173 8 0 17 4 20
9 3 5 26 21 51 35 l44 26 149 -60 c152 -61 231 -83 280 -75 15 2 68 6 117 9
l91 5 -4 -128 c-4 -127 10 -288 29 -323 15 -28 29 -21 29 16 0 30 3 34 34 39
53 8 101 35 156 84 61 55 70 84 70 233 l0 116 303 33 c308 34 338 40 371 69
32 29 44 72 85 318 44 260 111 672 111 681 0 19 -502 -21 -775 -62 -107 -16
-152 -19 -157 -11 -32 46 -50 128 -52 221 -1 111 -18 160 -90 264 -81 119 -74
166 45 297 106 115 123 153 116 253 -9 124 -148 540 -250 751 -75 154 -213
267 -365 299 -65 14 -195 14 -240 2 -19 -6 -43 -6 -55 -2 -37 14 -139 20 -204
11z m573 -411 c100 -42 162 -137 172 -259 l5 -65 -29 26 c-31 28 -82 49 -121
49 -38 0 -25 -32 17 -42 19 -5 59 -19 88 -30 l52 -22 2 -120 c5 -249 -4 -331
-49 -419 -34 -69 -87 -122 -151 -154 -49 -24 -69 -28 -142 -28 -77 0 -92 3
-155 35 -38 19 -74 36 -80 39 -5 2 -1 -6 9 -18 11 -12 48 -36 84 -53 54 -27
76 -32 138 -32 72 -1 74 -2 74 -26 1 -14 7 -54 15 -89 13 -63 13 -66 -12 -114
-13 -27 -49 -73 -78 -103 -38 -37 -56 -64 -61 -89 l-7 -36 -34 33 c-37 35 -36
28 -17 149 9 59 -16 92 -120 160 -93 61 -93 62 -112 123 -10 33 -18 66 -18 71
-1 6 -21 31 -45 58 -64 69 -119 144 -151 207 -26 52 -31 56 -66 58 -21 2 -39
4 -41 5 -4 4 15 129 21 134 5 5 23 -6 72 -42 7 -5 16 -6 21 -2 13 14 -13 42
-53 55 -21 7 -40 15 -42 17 -2 2 -1 22 3 44 6 37 9 41 37 41 19 0 45 -12 72
-35 24 -19 48 -35 53 -35 6 0 12 26 15 58 5 76 37 139 105 207 45 47 80 68
196 124 89 43 159 83 187 109 50 46 64 47 146 11z m-339 -1287 l25 -22 -45
-48 c-25 -26 -56 -60 -70 -77 l-25 -30 -6 25 c-6 28 -26 209 -26 234 0 12 14
7 61 -21 33 -21 72 -48 86 -61z m312 -48 c9 -22 8 -29 -9 -51 -11 -14 -22 -40
-26 -59 -6 -32 -7 -33 -30 -17 -27 17 -45 8 -66 -31 -11 -21 -10 -21 13 1 l24
21 35 -29 c19 -16 38 -29 42 -29 4 0 8 19 8 43 0 49 20 92 41 91 8 -1 43 -22
77 -48 92 -71 114 -123 67 -167 -13 -13 -25 -30 -25 -36 0 -7 24 -26 53 -43
90 -52 159 -37 228 50 l33 41 17 -43 c25 -61 24 -66 -18 -73 -59 -10 -106 -26
-125 -43 -10 -8 -27 -40 -38 -70 -38 -100 -122 -403 -155 -557 l-32 -150 -37
-3 c-25 -2 -44 3 -63 17 -44 36 -196 70 -178 41 3 -5 16 -10 29 -10 68 0 166
-51 166 -86 0 -27 -30 -27 -89 0 -73 32 -99 33 -161 1 -27 -14 -63 -25 -80
-25 -17 0 -62 -16 -101 -36 l-71 -35 -23 21 c-37 35 -68 173 -47 207 4 6 51
23 105 36 54 14 106 32 115 40 19 16 278 97 310 97 11 0 43 -21 71 -46 68 -61
80 -48 16 16 -41 41 -56 49 -86 50 -33 0 -245 -66 -292 -92 -41 -22 -161 -49
-189 -43 -22 5 -39 1 -66 -18 -23 -15 -103 -42 -212 -71 -96 -25 -214 -57
-262 -70 -59 -16 -88 -20 -88 -13 1 7 5 32 10 57 15 72 31 321 24 368 -7 46
-19 54 -29 21 -7 -21 -8 -21 -31 7 -29 36 -29 33 -4 -34 19 -51 20 -57 5 -180
-8 -70 -15 -157 -16 -195 -2 -66 -11 -81 -33 -53 -17 22 -166 65 -323 91 -78
14 -144 25 -146 25 -6 0 56 256 98 406 56 198 113 363 153 438 38 72 130 181
162 191 10 3 34 -4 54 -16 20 -12 55 -25 77 -30 26 -6 50 -21 70 -44 29 -33
118 -75 159 -75 26 0 30 -20 33 -173 2 -136 16 -169 31 -78 9 51 -1 156 -20
219 -11 37 30 27 103 -24 35 -26 81 -53 101 -60 51 -18 123 -17 150 2 33 23
62 87 62 135 0 38 9 55 73 138 60 79 73 91 75 73 2 -13 -1 -37 -7 -54 -22 -64
-15 -94 35 -140 54 -51 89 -108 98 -160 4 -21 12 -38 18 -38 19 0 3 97 -24
137 l-24 38 19 40 c11 22 41 64 67 92 27 29 54 69 60 88 14 42 23 44 39 9z
m1436 -351 c-3 -27 -22 -138 -41 -248 -110 -631 -112 -637 -157 -654 -12 -5
-229 -32 -482 -60 -253 -29 -507 -59 -565 -67 -129 -19 -159 -15 -335 43 -77
26 -147 49 -155 51 -8 3 4 8 27 13 23 4 55 15 72 23 42 22 78 20 136 -9 28
-14 60 -25 72 -25 24 0 48 33 39 56 -7 18 24 19 46 2 14 -11 15 -23 7 -78 -15
-108 -5 -90 25 41 88 391 201 789 234 821 41 41 705 132 1001 137 l83 1 -7
-47z m-849 -1050 c-6 -24 -33 -158 -41 -206 -8 -49 -61 -108 -127 -141 -69
-35 -84 -25 -93 56 -3 35 -5 113 -3 173 l3 110 95 11 c150 18 172 17 166 -3z"/>
<path d="M1650 3141 c-33 -18 -101 -81 -87 -81 3 0 23 10 43 22 21 12 65 27
98 33 42 8 61 16 61 26 0 22 -73 22 -115 0z"/>
<path d="M1667 3033 c-4 -3 -7 -28 -7 -55 0 -41 3 -48 20 -48 14 0 22 10 30
39 5 21 7 46 4 55 -6 16 -35 22 -47 9z"/>
<path d="M2042 3028 c-25 -25 -8 -88 24 -88 7 0 17 14 23 31 17 50 -15 89 -47
57z"/>
<path d="M1940 2892 c0 -5 9 -17 20 -27 24 -22 26 -58 4 -76 -14 -11 -22 -10
-56 9 -41 22 -58 21 -58 -2 0 -17 60 -46 94 -46 63 0 91 89 40 129 -28 22 -44
27 -44 13z"/>
<path d="M1967 2635 c-34 -30 -77 -32 -102 -5 -20 22 -50 26 -60 9 -11 -16 34
-58 73 -69 57 -15 131 25 132 73 0 23 -10 21 -43 -8z"/>
<path d="M1611 1884 c7 -22 22 -36 54 -51 33 -15 45 -17 45 -8 0 8 -16 19 -35
25 -19 6 -43 23 -55 38 l-20 27 11 -31z"/>
<path d="M895 1875 c3 -16 18 -113 35 -214 16 -102 30 -195 30 -207 0 -21 16
-41 25 -32 2 2 -1 51 -6 108 -10 109 -50 293 -74 345 l-15 30 5 -30z"/>
<path d="M1846 1074 c-43 -8 -85 -19 -95 -25 -13 -8 -11 -9 9 -5 14 3 64 11
112 17 l88 10 55 -31 c62 -36 75 -24 16 15 -50 33 -88 37 -185 19z"/>
<path d="M1860 984 l-55 -13 50 5 c28 3 62 7 76 10 18 3 36 -4 64 -26 53 -42
76 -38 25 5 -47 39 -69 42 -160 19z"/>
<path d="M2800 1384 c0 -3 5 -14 10 -25 8 -13 7 -25 0 -39 -9 -18 -8 -20 15
-20 17 0 25 -5 23 -12 -8 -22 -35 -20 -57 3 -17 18 -23 20 -35 10 -8 -7 -18
-23 -22 -34 -3 -12 -25 -41 -47 -64 -50 -52 -44 -62 41 -70 42 -4 75 -1 109
11 26 9 63 20 82 24 35 8 55 32 27 32 -12 0 -14 9 -10 48 5 44 3 49 -28 79
-31 30 -108 71 -108 57z m101 -86 c5 -10 14 -16 20 -13 12 8 12 -32 -2 -56 -7
-15 -7 -24 2 -35 9 -12 7 -14 -18 -14 -16 0 -38 -6 -49 -14 -11 -8 -38 -17
-60 -21 l-39 -6 35 17 c19 9 29 18 23 21 -7 3 -13 13 -13 24 0 12 -7 19 -19
19 -28 0 -37 -21 -17 -35 15 -11 13 -14 -15 -24 -38 -13 -69 -14 -69 -3 0 5
14 21 30 37 17 16 30 34 30 39 0 6 4 18 10 26 7 12 12 12 35 0 37 -20 79 -3
83 32 2 19 -2 28 -16 32 -11 4 -22 15 -25 26 -4 17 -1 16 29 -7 19 -14 39 -35
45 -45z"/>
<path d="M570 770 c-8 -5 -10 -10 -5 -10 6 0 17 5 25 10 8 5 11 10 5 10 -5 0
-17 -5 -25 -10z"/>
<path d="M1545 635 c-61 -84 -164 -248 -165 -262 -1 -47 71 44 155 194 31 56
55 107 53 112 -1 6 -21 -14 -43 -44z"/>
</g>
</svg>
