<?xml version="1.0" standalone="no"?>
<!DOCTYPE svg PUBLIC "-//W3C//DTD SVG 20010904//EN"
 "http://www.w3.org/TR/2001/REC-SVG-20010904/DTD/svg10.dtd">
<svg version="1.0" xmlns="http://www.w3.org/2000/svg"
 width="325.000000pt" height="400.000000pt" viewBox="0 0 325.000000 400.000000"
 preserveAspectRatio="xMidYMid meet">

<g transform="translate(0.000000,400.000000) scale(0.100000,-0.100000)"
fill="#000000" stroke="none">
<path d="M1355 3829 c-33 -5 -88 -23 -122 -40 -75 -36 -206 -157 -286 -262
-208 -272 -269 -619 -150 -850 14 -29 14 -30 -55 -100 -135 -140 -188 -252
-180 -381 4 -56 12 -86 35 -128 l29 -55 -39 -44 c-182 -204 -319 -542 -368
-909 -18 -133 -16 -464 4 -640 25 -212 19 -197 85 -212 66 -15 457 -17 471 -2
6 5 2 73 -10 164 -36 291 -45 587 -17 578 5 -2 10 -73 12 -158 1 -85 13 -251
26 -367 l24 -213 31 0 c17 0 89 5 161 10 100 8 162 8 279 -4 83 -7 151 -13
151 -12 1 0 4 36 6 78 l3 77 -55 3 c-49 3 -55 6 -58 26 -2 13 3 31 11 40 29
35 28 41 -5 56 l-33 14 28 1 c15 1 36 -8 47 -19 19 -19 19 -22 4 -52 l-16 -31
37 6 c20 3 48 2 62 -4 26 -10 26 -10 19 -90 -4 -45 -8 -86 -9 -92 -3 -16 125
-23 614 -32 279 -6 408 -5 412 2 6 9 -34 228 -58 326 -7 26 -4 25 42 -20 143
-139 353 -151 463 -26 71 81 103 249 86 453 l-7 85 -61 2 c-69 3 -98 21 -98
62 0 25 -2 26 -40 23 -29 -3 -47 1 -60 13 -26 24 -26 76 0 106 l20 24 -6 -41
c-7 -50 2 -58 67 -55 53 2 79 -16 79 -54 0 -18 4 -22 20 -18 11 3 32 -2 46
-12 l26 -17 -6 29 c-33 165 -88 478 -91 518 -2 44 -5 50 -23 48 -46 -5 -41
193 8 336 17 47 30 101 30 121 0 50 -44 133 -88 166 -49 37 -49 36 -56 118
-15 157 -45 247 -92 268 -20 9 -28 9 -41 -5 -15 -14 -15 -27 -5 -111 7 -52 12
-117 12 -145 0 -46 -3 -52 -29 -66 -16 -8 -31 -20 -33 -27 -4 -10 -10 -10 -32
0 -45 20 -83 15 -118 -17 -31 -28 -33 -33 -36 -110 -2 -45 -7 -81 -11 -81 -7
0 -78 104 -113 165 -22 38 -23 107 -2 146 8 16 48 66 89 110 98 106 119 152
112 244 -9 125 -150 549 -255 765 -78 160 -200 264 -357 305 -60 15 -204 19
-260 6 -16 -4 -42 -4 -57 0 -50 14 -153 17 -213 8z m613 -430 c49 -24 70 -42
93 -78 48 -75 59 -129 70 -354 15 -312 -6 -425 -98 -527 -112 -125 -264 -148
-428 -65 l-70 35 39 -35 c59 -53 134 -77 228 -73 l78 3 -6 -65 c-7 -75 -15
-84 -94 -107 -70 -20 -185 -13 -260 17 -30 12 -58 25 -62 29 -5 4 -13 33 -19
66 -19 101 -48 164 -106 227 -56 61 -121 155 -142 205 -9 23 -18 29 -48 31
-20 1 -39 4 -41 7 -2 2 -1 34 3 70 8 74 17 79 65 39 22 -19 34 -24 42 -16 14
14 -25 51 -62 59 -28 5 -30 9 -30 48 0 43 10 55 48 55 8 0 37 -18 63 -40 26
-22 52 -40 57 -40 5 0 11 28 14 63 5 82 36 143 109 216 48 47 81 68 167 107
122 55 196 99 232 139 31 33 65 30 158 -16z m748 -831 c17 -33 54 -195 54
-240 0 -27 0 -27 -37 -14 -21 8 -37 20 -35 27 6 24 4 165 -3 212 -8 55 -2 60
21 15z m82 -311 c59 -37 128 -110 87 -92 -11 4 -46 15 -78 23 -103 27 -162 -6
-174 -98 -6 -41 -6 -42 -19 -19 -22 39 -17 94 10 126 20 23 32 28 74 28 28 0
53 3 57 7 14 14 -39 30 -87 26 -56 -3 -73 11 -36 30 39 20 104 7 166 -31z
m-211 -14 c18 -23 0 -41 -45 -45 -44 -4 -48 -21 -6 -28 23 -4 25 -7 12 -12
-21 -8 -24 -28 -5 -28 6 0 21 -17 32 -37 11 -20 29 -41 40 -47 40 -22 45 -39
19 -63 -13 -12 -24 -29 -24 -37 0 -25 12 -46 26 -46 13 0 18 14 26 65 3 17 10
19 45 17 34 -3 44 0 55 17 9 14 23 21 45 21 44 0 42 16 -2 24 -31 6 -50 26
-25 26 6 0 10 5 10 10 0 6 -12 10 -26 10 -23 0 -25 -3 -22 -37 3 -33 0 -38
-20 -41 -13 -2 -33 5 -44 15 -16 14 -19 27 -15 61 9 80 53 98 179 70 89 -19
96 -48 47 -180 -28 -74 -32 -98 -37 -220 l-5 -138 -86 0 c-122 0 -127 3 -134
58 -7 61 -35 125 -82 186 -55 72 -87 172 -89 274 -1 81 0 85 28 109 23 19 36
24 60 19 17 -4 37 -14 43 -23z m-522 -347 c21 0 44 -22 45 -43 0 -18 -41 -26
-73 -14 -26 10 -29 9 -42 -22 -22 -53 -48 -71 -92 -62 -71 13 -77 12 -93 -22
-8 -18 -18 -33 -22 -33 -15 0 -28 40 -22 65 12 50 60 64 144 44 8 -3 21 10 32
31 24 48 56 72 82 63 12 -3 30 -7 41 -7z m-1279 -104 c18 -12 34 -49 34 -81
l0 -30 59 22 c58 21 60 21 80 3 25 -22 26 -50 6 -99 -13 -31 -13 -36 0 -47 19
-16 19 -36 0 -44 -24 -9 -42 3 -55 35 -11 25 -10 36 5 69 22 48 17 56 -22 37
-42 -21 -94 -29 -109 -16 -9 7 -14 32 -14 66 l0 55 -45 -6 c-50 -8 -58 2 -22
27 23 17 65 21 83 9z m1762 -245 c5 -26 -16 -47 -47 -47 -18 0 -31 -9 -43 -30
-22 -38 -60 -47 -114 -27 -47 17 -55 13 -69 -33 -10 -32 -25 -51 -36 -44 -14
8 -10 72 6 104 20 38 54 46 107 25 42 -16 43 -16 60 5 10 12 18 30 18 39 0 27
9 31 64 28 40 -1 52 -6 54 -20z m-1158 -57 c0 -50 -47 -69 -119 -49 -10 3 -18
-9 -25 -33 -17 -57 -42 -81 -74 -73 -78 19 -81 19 -88 -10 -6 -25 -8 -25 -23
-11 -14 15 -14 19 0 44 15 27 30 30 108 20 21 -3 27 3 36 34 6 21 19 47 31 58
17 18 24 19 52 9 40 -14 62 -6 62 21 0 13 7 20 20 20 16 0 20 -7 20 -30z
m1227 -50 c-4 -45 -27 -163 -52 -262 -26 -100 -49 -206 -53 -236 -4 -34 -13
-57 -21 -60 -22 -7 -8 84 43 283 24 93 47 193 50 220 4 28 9 69 12 93 3 23 10
42 16 42 8 0 9 -25 5 -80z m-985 -107 c7 -8 11 -35 10 -59 -2 -54 11 -62 63
-40 56 24 90 20 114 -11 15 -18 19 -33 14 -47 -4 -12 -6 -38 -5 -59 2 -37 1
-38 -25 -35 -26 3 -28 7 -27 43 0 22 4 48 9 59 7 17 5 18 -31 12 -107 -18
-115 -18 -134 -1 -15 14 -20 31 -20 72 l0 53 -34 0 c-19 0 -38 -4 -41 -10 -3
-5 -11 -10 -17 -10 -18 0 15 32 46 45 33 14 60 10 78 -12z m-1159 -219 l-2
-51 40 11 c57 15 74 1 72 -58 -1 -29 3 -45 10 -43 18 3 20 -38 3 -52 -20 -16
-56 -10 -70 11 -7 12 -7 29 1 58 8 30 8 40 -1 37 -83 -31 -86 -31 -102 -15
-15 14 -15 21 -1 68 15 52 15 52 -6 46 -65 -18 -70 -19 -63 -7 12 18 79 51
101 48 17 -2 20 -9 18 -53z m844 -201 c9 -24 -18 -44 -56 -41 -35 3 -36 2 -48
-44 -14 -59 -19 -67 -48 -78 -17 -6 -39 -4 -70 7 -43 14 -48 14 -63 0 -13 -13
-14 -23 -5 -52 13 -40 2 -46 -21 -13 -22 31 -20 74 5 99 22 22 29 22 111 3 30
-7 32 -4 43 59 9 57 34 76 95 75 33 -1 54 -6 57 -15z m911 -149 c36 -17 39
-26 16 -45 -12 -10 -22 -10 -45 -2 -33 13 -34 12 -64 -62 -28 -69 -56 -82
-129 -59 -64 20 -86 11 -86 -37 0 -32 -15 -47 -24 -23 -13 35 -5 75 20 100 22
23 30 25 62 18 84 -17 94 -14 114 41 30 82 71 102 136 69z m660 -76 c9 -9 15
-9 24 0 14 14 45 16 53 2 9 -15 -22 -68 -45 -75 -10 -3 -28 -1 -39 4 -27 15
-31 14 -31 -8 0 -28 -38 -71 -63 -71 -12 0 -37 9 -55 20 -44 27 -52 25 -52
-11 0 -26 -3 -30 -22 -27 -45 6 -36 88 12 108 26 11 35 9 70 -9 22 -11 42 -21
44 -21 2 0 6 13 9 30 11 55 65 88 95 58z m-2337 -164 c17 -8 44 -14 61 -12 38
4 59 -22 39 -46 -17 -20 -50 -20 -102 0 -45 19 -59 11 -59 -32 0 -42 -28 -50
-97 -29 -18 6 -22 2 -28 -24 -8 -37 -21 -40 -36 -7 -27 58 20 102 82 79 26
-10 28 -9 34 19 8 34 38 68 60 68 9 0 30 -7 46 -16z"/>
<path d="M1630 3120 c-58 -20 -100 -58 -100 -91 0 -19 2 -19 33 6 19 14 60 30
91 37 60 12 77 28 56 53 -15 18 -13 19 -80 -5z"/>
<path d="M1963 3134 c-24 -10 -13 -21 25 -28 22 -3 48 -16 62 -31 28 -30 60
-33 60 -7 0 31 -45 64 -92 68 -24 2 -49 1 -55 -2z"/>
<path d="M1652 2998 c-7 -7 -12 -22 -12 -35 0 -13 -5 -23 -11 -23 -15 0 -81
-41 -76 -47 3 -2 31 3 62 13 39 11 73 14 106 10 41 -6 49 -4 49 9 0 9 -15 22
-32 30 -18 7 -39 23 -46 34 -14 24 -23 26 -40 9z"/>
<path d="M2010 2981 c0 -21 -6 -32 -20 -36 -11 -3 -20 -11 -20 -16 0 -6 9 -8
20 -5 11 3 29 9 40 12 12 3 32 -1 45 -10 16 -10 26 -12 30 -5 9 14 -2 39 -18
39 -7 0 -23 11 -35 25 -29 33 -42 32 -42 -4z"/>
<path d="M1890 2870 c0 -5 6 -10 14 -10 8 0 24 -12 35 -26 16 -21 18 -30 10
-40 -13 -16 -62 -18 -89 -4 -13 7 -21 6 -30 -5 -10 -12 -7 -16 15 -25 14 -5
46 -10 70 -10 36 0 48 5 61 25 14 21 14 30 5 54 -16 37 -91 71 -91 41z"/>
<path d="M1926 2652 c-21 -41 -44 -47 -79 -22 -34 26 -45 20 -29 -15 25 -55
105 -57 146 -2 15 21 18 32 10 44 -17 28 -32 26 -48 -5z"/>
</g>
</svg>
