<?xml version="1.0" standalone="no"?>
<!DOCTYPE svg PUBLIC "-//W3C//DTD SVG 20010904//EN"
 "http://www.w3.org/TR/2001/REC-SVG-20010904/DTD/svg10.dtd">
<svg version="1.0" xmlns="http://www.w3.org/2000/svg"
 width="290.000000pt" height="400.000000pt" viewBox="0 0 290.000000 400.000000"
 preserveAspectRatio="xMidYMid meet">

<g transform="translate(0.000000,400.000000) scale(0.100000,-0.100000)"
fill="#000000" stroke="none">
<path d="M1335 3829 c-85 -13 -171 -59 -252 -134 -229 -212 -355 -471 -354
-730 0 -106 17 -188 51 -256 l21 -40 -78 -83 c-92 -98 -136 -169 -158 -251
-19 -75 -19 -118 1 -185 l16 -53 -46 -46 c-51 -52 -55 -61 -26 -61 11 0 20 -7
20 -15 0 -13 -7 -15 -34 -9 -32 5 -36 3 -59 -33 -92 -146 -180 -385 -202 -552
-7 -50 -6 -53 13 -47 32 11 35 -12 4 -28 -28 -14 -29 -19 -35 -99 -3 -47 -2
-140 3 -208 29 -374 133 -617 300 -698 45 -21 56 -32 60 -56 5 -30 5 -30 84
-33 l78 -3 -6 26 c-5 18 -2 25 8 25 7 0 17 -12 20 -26 7 -25 10 -26 50 -21 23
3 250 9 504 13 436 7 462 8 468 26 3 10 12 18 20 18 11 0 13 -6 9 -20 -4 -13
-2 -20 7 -20 7 0 67 -7 133 -15 66 -8 163 -15 216 -15 83 0 98 3 114 20 10 11
28 20 40 20 12 0 44 7 72 15 59 18 127 83 167 164 l26 51 -40 6 c-25 4 -40 12
-40 21 0 11 9 12 38 7 20 -3 41 -7 47 -8 5 0 20 37 32 84 30 112 27 301 -6
395 -12 33 -26 64 -31 69 -5 5 -1 24 11 47 22 44 24 71 7 98 -9 15 -9 26 0 45
10 22 8 29 -15 56 -14 17 -28 28 -31 25 -3 -3 5 -17 18 -30 21 -22 22 -29 12
-45 -15 -24 -16 -57 -2 -65 14 -9 12 -42 -5 -74 -20 -39 -134 -86 -248 -102
-77 -11 -90 -10 -104 3 -18 19 -10 54 16 68 10 5 69 16 131 24 62 8 115 18
119 22 9 9 -142 -5 -222 -22 -84 -17 -87 -17 -87 0 0 33 57 62 178 90 67 15
122 31 122 35 0 5 -55 -5 -122 -21 -67 -16 -128 -26 -136 -23 -8 3 -12 16 -10
32 4 34 94 86 179 102 32 7 61 16 64 21 8 13 -9 12 -80 -5 -80 -19 -85 -19
-85 8 0 33 11 44 63 67 40 18 177 40 177 29 0 -2 7 -22 15 -44 9 -25 14 -32
15 -19 0 28 -20 84 -30 84 -5 0 14 48 42 108 84 179 109 242 95 247 -12 5
-206 25 -236 25 -31 0 -51 53 -54 142 -3 88 -28 161 -80 230 -37 49 -67 114
-67 143 0 46 25 88 102 172 126 137 140 194 93 373 -60 224 -200 592 -266 695
-75 119 -194 204 -326 235 -32 7 -105 11 -185 9 -73 -2 -162 -1 -198 3 -36 4
-92 3 -125 -3z m581 -409 c99 -43 160 -135 171 -259 l6 -66 -24 22 c-51 46
-154 72 -147 36 2 -10 20 -21 48 -29 64 -17 114 -37 122 -49 4 -5 8 -96 8
-200 0 -140 -4 -207 -15 -250 -31 -119 -93 -197 -194 -247 -37 -18 -63 -23
-131 -23 -77 0 -92 3 -155 35 -38 19 -74 36 -80 39 -5 2 -1 -6 9 -18 11 -12
48 -36 84 -53 54 -27 76 -32 138 -32 l74 -1 0 -32 c0 -27 -5 -34 -27 -40 -43
-12 -170 -7 -250 10 -99 21 -142 43 -150 76 -10 44 -49 115 -78 141 -36 33
-107 133 -138 195 -23 46 -28 51 -63 53 -21 2 -40 4 -41 6 -5 5 13 126 20 132
6 6 23 -4 73 -41 7 -5 16 -6 21 -2 14 14 -14 42 -55 55 -36 12 -42 18 -42 42
0 75 46 82 121 19 54 -45 55 -45 62 44 7 69 40 131 108 199 36 36 83 65 191
117 87 42 161 85 188 110 50 45 64 46 146 11z m-402 -1259 c12 -13 14 -21 6
-26 -11 -7 -50 21 -50 37 0 15 27 8 44 -11z m-914 -328 c0 -7 -5 -13 -10 -13
-20 0 -71 31 -65 39 8 13 75 -10 75 -26z m450 -13 c0 -22 -100 -44 -107 -24
-2 7 13 16 34 22 51 13 73 14 73 2z m1562 -35 c21 -4 38 -9 38 -12 0 -3 -34
-77 -76 -163 l-76 -157 -51 -7 c-28 -3 -76 -18 -107 -33 l-55 -28 -3 -52 c-2
-29 -7 -53 -12 -53 -5 0 -21 -11 -37 -24 l-29 -24 -52 64 c-50 61 -55 64 -95
63 -23 0 -51 -4 -62 -9 -22 -9 -26 -7 69 -35 67 -19 100 -48 114 -97 10 -35 6
-88 -7 -88 -3 1 -15 15 -26 33 -21 33 -102 73 -172 84 -59 10 -36 -15 36 -38
51 -17 71 -28 75 -43 9 -33 7 -51 -8 -71 -13 -17 -15 -17 -52 12 -21 17 -50
34 -64 38 -17 5 -10 -3 22 -27 26 -18 48 -38 48 -45 0 -18 -41 -43 -70 -43
-18 0 -38 -14 -70 -51 l-46 -51 -88 1 c-75 1 -96 -2 -147 -25 -33 -15 -63 -24
-67 -20 -4 4 -9 64 -11 132 l-3 124 64 30 c79 37 143 97 198 185 24 37 55 72
72 81 16 9 72 20 125 26 111 13 122 8 186 -83 32 -45 37 -60 32 -86 -7 -39 10
-45 27 -9 13 30 -12 85 -74 158 -38 45 -39 49 -24 70 18 26 20 38 6 38 -5 0
-16 -13 -25 -30 -9 -16 -22 -30 -29 -30 -9 0 3 29 35 81 26 45 51 89 54 98 3
10 24 24 47 30 26 8 57 30 85 59 l45 47 111 -7 c61 -4 128 -10 149 -13z m-739
-1 c8 -8 -13 -64 -24 -64 -10 0 -12 31 -3 54 6 17 16 20 27 10z m-458 -211
c-10 -59 -14 -68 -26 -56 -16 16 -1 93 17 93 12 0 13 -8 9 -37z m-845 -8 c0
-15 -59 -46 -73 -38 -12 7 4 24 37 39 17 7 32 13 34 14 1 0 2 -7 2 -15z m424
-125 c28 -10 35 -30 11 -30 -20 0 -65 22 -65 32 0 11 23 10 54 -2z m-174 -200
c8 -64 9 -131 2 -205 -5 -60 -8 -112 -6 -113 3 -5 173 33 292 65 52 13 96 22
99 19 23 -23 -70 -55 -305 -105 -107 -23 -221 -51 -255 -61 -34 -11 -63 -17
-66 -15 -6 7 124 64 160 72 20 4 34 15 41 32 7 15 11 108 12 223 1 108 4 194
8 190 4 -4 12 -50 18 -102z m539 -5 c0 -5 -12 -9 -26 -8 -30 2 -37 8 -29 21 8
13 56 1 55 -13z m866 -75 c3 -5 1 -10 -4 -10 -6 0 -11 5 -11 10 0 6 2 10 4 10
3 0 8 -4 11 -10z m-1760 -61 c23 -14 33 -25 27 -31 -13 -13 -72 18 -72 37 0
19 2 19 45 -6z m2050 -350 c18 -53 17 -110 -2 -116 -7 -3 -14 11 -18 34 -9 59
-23 126 -31 148 -7 20 -7 20 14 1 12 -10 28 -40 37 -67z m-1475 9 c0 -15 -27
-8 -44 11 -27 30 -9 47 20 20 13 -12 24 -26 24 -31z m1110 29 c0 -19 -81 -50
-94 -37 -6 6 6 17 35 29 52 24 59 25 59 8z m-324 -28 c10 -21 12 -35 6 -41 -7
-7 -16 0 -26 20 -9 17 -16 36 -16 42 0 21 20 9 36 -21z m-528 -105 c-9 -9
-133 -71 -275 -136 -316 -146 -288 -134 -279 -119 11 18 523 271 549 271 20 0
20 -1 5 -16z m-768 -43 c0 -11 -70 -42 -81 -35 -14 8 -1 23 34 38 32 13 47 12
47 -3z m1033 -89 c3 -4 -6 -20 -19 -35 -32 -37 -51 -25 -24 14 21 29 35 36 43
21z m576 -96 c15 -16 19 -26 11 -31 -13 -8 -50 22 -50 42 0 20 14 16 39 -11z
m-990 -67 c30 -40 13 -63 -18 -23 -21 27 -28 54 -13 54 5 0 19 -14 31 -31z"/>
<path d="M1575 3131 c-27 -16 -56 -39 -63 -50 -12 -21 -11 -21 36 3 26 13 70
27 97 31 61 9 66 12 58 30 -9 25 -73 18 -128 -14z"/>
<path d="M1605 3030 c-9 -15 -10 -88 -2 -97 18 -17 42 15 45 61 3 40 1 46 -17
46 -11 0 -23 -4 -26 -10z"/>
<path d="M1981 3026 c-17 -20 -10 -67 12 -80 24 -15 38 7 35 54 -3 38 -26 51
-47 26z"/>
<path d="M1880 2892 c0 -5 9 -17 20 -27 23 -21 26 -57 5 -75 -16 -13 -51 -6
-77 17 -18 16 -38 10 -38 -12 0 -19 52 -45 90 -45 67 0 97 88 44 129 -28 22
-44 27 -44 13z"/>
<path d="M1750 2644 c-11 -12 -9 -19 10 -40 45 -47 118 -48 167 -2 21 19 32
58 17 58 -3 0 -19 -11 -36 -25 -33 -28 -79 -33 -98 -9 -24 28 -47 35 -60 18z"/>
</g>
</svg>
